<svg width="35" height="39" viewBox="0 0 35 39" fill="none" xmlns="http://www.w3.org/2000/svg">
<g id="innerwall-Icon">
<g id="floor_celing">
<path id="Vector 33" d="M35 38H1M35 1H0.5M7.66226 25H28M7.5 8.5H28" stroke="black"/>
</g>
<g id="left-wall">
<g id="Vector">
<path d="M4.25 31.6558L1 38.3116V24.3531V17V10V2L4.25 5.25L7.5 8.5V13.3531V17V21V25L4.25 31.6558Z" fill="white"/>
<path d="M7.5 17H1M7.5 13.3531L1 10M7.5 21L1 24.3531M4.25 31.6558V5.25M1 38.3116L7.5 25V8.5L1 2V38.3116Z" stroke="black"/>
</g>
</g>
<g id="right-wall">
<g id="Vector_2">
<path d="M31.25 31.6558L34.5 38.3116V24.3531V17V10V2L31.25 5.25L28 8.5V13.3531V17V21V25L31.25 31.6558Z" fill="white"/>
<path d="M28 17H34.5M28 13.3531L34.5 10M28 21L34.5 24.3531M31.25 31.6558V5.25M34.5 38.3116L28 25V8.5L34.5 2V38.3116Z" stroke="black"/>
</g>
</g>
</g>
</svg>
