<svg width="22" height="22" viewBox="0 0 22 22" fill="none" xmlns="http://www.w3.org/2000/svg">
<g id="otherIcon">
<path id="Vector 41" d="M20 10.5634L21.7176 5.05131L16.0852 6.31991L20 10.5634ZM2.66996 3.05339C2.46252 3.23566 2.44213 3.55158 2.6244 3.75902C2.80667 3.96646 3.1226 3.98686 3.33004 3.80459L2.66996 3.05339ZM3.33004 3.80459C5.4944 1.90277 8.61768 1.17705 11.565 1.63083C14.5089 2.08408 17.2059 3.70167 18.5646 6.39808L19.4577 5.94807C17.9236 2.90382 14.9088 1.13386 11.7172 0.642475C8.529 0.151616 5.09312 0.924173 2.66996 3.05339L3.33004 3.80459Z" fill="black"/>
<path id="Vector 42" d="M2 11L0.282444 16.5121L5.91485 15.2435L2 11ZM19.33 18.51C19.5375 18.3278 19.5579 18.0118 19.3756 17.8044C19.1933 17.597 18.8774 17.5766 18.67 17.7588L19.33 18.51ZM18.67 17.7588C16.5056 19.6606 13.3823 20.3864 10.435 19.9326C7.49112 19.4793 4.79413 17.8617 3.43537 15.1653L2.54234 15.6153C4.07639 18.6596 7.09122 20.4296 10.2828 20.9209C13.471 21.4118 16.9069 20.6392 19.33 18.51L18.67 17.7588Z" fill="black"/>
</g>
</svg>
